Coordinates
version=1
nRows=27
nColumns=34
inDegrees=no

Units are S.I. units (second, meters, Newtons, ...)
If the header above contains a line with 'inDegrees', this indicates whether rotational values are in degrees (yes) or radians (no).

endheader
time	pelvis_tilt	pelvis_list	pelvis_rotation	pelvis_tx	pelvis_ty	pelvis_tz	hip_flexion_r	hip_adduction_r	hip_rotation_r	knee_angle_r	ankle_angle_r	subtalar_angle_r	mtp_angle_r	hip_flexion_l	hip_adduction_l	hip_rotation_l	knee_angle_l	ankle_angle_l	subtalar_angle_l	mtp_angle_l	lumbar_extension	lumbar_bending	lumbar_rotation	arm_flex_r	arm_add_r	arm_rot_r	elbow_flex_r	pro_sup_r	arm_flex_l	arm_add_l	arm_rot_l	elbow_flex_l	pro_sup_l
0.42	-0.0386478	-0.098483	0.0236871	0.494447	0.954185	-0.219605	-0.21153	0.128113	-0.111406	0.110342	0.285289	0.171247	0.00163117	0.518157	-0.149644	-0.179468	0.151915	0.143475	0.222857	-0.00320316	-0.0648531	-0.060273	0.218398	0.215585	-0.34317	0.137921	1.10851	1.96219	-0.0839218	-0.299447	0.0249334	0.727498	1.95682
0.43	-0.037372	-0.0961306	0.0203607	0.507524	0.952506	-0.219655	-0.217278	0.123424	-0.110397	0.130601	0.28971	0.16826	0.00157132	0.515989	-0.151484	-0.182227	0.150983	0.150259	0.228539	-0.00325056	-0.0633298	-0.0689441	0.219237	0.21494	-0.345315	0.136238	1.10825	1.9651	-0.0845905	-0.300394	0.0199521	0.721808	1.95395
0.44	-0.0356854	-0.0932768	0.016622	0.520767	0.950928	-0.219745	-0.221687	0.11768	-0.109381	0.154261	0.291494	0.164832	0.00151144	0.514033	-0.153372	-0.184192	0.1596	0.154553	0.228987	-0.00329798	-0.0620595	-0.0783549	0.219893	0.213145	-0.346584	0.133714	1.10748	1.96666	-0.0846878	-0.301244	0.0146892	0.715189	1.95115
0.45	-0.0332827	-0.0892701	0.0126803	0.53419	0.949503	-0.219928	-0.224789	0.110026	-0.109	0.181782	0.290035	0.161207	0.00145155	0.511208	-0.154111	-0.185299	0.17511	0.155312	0.224397	-0.00334542	-0.0614038	-0.0891656	0.220163	0.210207	-0.346945	0.130396	1.10624	1.96688	-0.0841803	-0.302017	0.00909648	0.707704	1.94848
0.46	-0.0299479	-0.0835071	0.00873713	0.547782	0.948246	-0.220247	-0.226451	0.0996139	-0.10994	0.213772	0.284639	0.157641	0.00139163	0.506545	-0.152562	-0.185507	0.194656	0.151694	0.215117	-0.00339288	-0.0616781	-0.101965	0.219832	0.20619	-0.34643	0.126415	1.10457	1.96582	-0.0830515	-0.302723	0.0030947	0.699461	1.94598
0.47	-0.0255844	-0.0755358	0.00496252	0.561516	0.947161	-0.22074	-0.226347	0.0857283	-0.11279	0.250919	0.274553	0.154271	0.0013317	0.499395	-0.14781	-0.184795	0.215639	0.143276	0.201568	-0.00344036	-0.063089	-0.117171	0.218682	0.201218	-0.345143	0.121985	1.10257	1.96357	-0.0813037	-0.30336	-0.0034141	0.690609	1.94367
0.48	-0.0202476	-0.0651274	0.00148336	0.575356	0.946231	-0.221433	-0.223972	0.0679011	-0.117892	0.293886	0.259039	0.150995	0.00127175	0.489585	-0.13931	-0.183152	0.236112	0.130227	0.184162	-0.00348786	-0.0656974	-0.134953	0.216519	0.19546	-0.343258	0.117376	1.10036	1.96024	-0.0789548	-0.303909	-0.0105238	0.68133	1.9415
0.49	-0.0141544	-0.0523122	-0.00161614	0.589247	0.945422	-0.222335	-0.218692	0.0459917	-0.125251	0.343196	0.237501	0.14739	0.00121177	0.477477	-0.126953	-0.180576	0.255025	0.113385	0.16329	-0.00353537	-0.0694072	-0.155199	0.213181	0.189119	-0.341009	0.112883	1.0981	1.95594	-0.076028	-0.304338	-0.0182924	0.671834	1.93934
0.5	-0.0076669	-0.037378	-0.00428474	0.603126	0.944679	-0.22344	-0.209826	0.0202267	-0.134488	0.399108	0.209644	0.142693	0.00115178	0.463929	-0.111078	-0.177093	0.272298	0.0942248	0.13936	-0.00358291	-0.0739821	-0.177528	0.20855	0.182411	-0.338669	0.108783	1.09598	1.95075	-0.0725372	-0.304613	-0.0267049	0.662338	1.93701
0.51	-0.0012447	-0.0208306	-0.00648975	0.616926	0.943936	-0.224725	-0.196748	-0.00880838	-0.144887	0.461524	0.175648	0.13587	0.00109176	0.45016	-0.0924078	-0.172785	0.288686	0.0746935	0.112891	-0.00363047	-0.0790893	-0.201348	0.202558	0.175547	-0.336515	0.105299	1.0942	1.94474	-0.0684696	-0.304711	-0.0356403	0.653048	1.93427
0.52	0.00463063	-0.00332343	-0.00820233	0.630578	0.943128	-0.226154	-0.178981	-0.0402243	-0.15549	0.529936	0.136307	0.125756	0.00103172	0.437539	-0.0719392	-0.167836	0.305483	0.0569563	0.0846309	-0.00367804	-0.084358	-0.225936	0.195191	0.168712	-0.33479	0.102573	1.09296	1.93794	-0.0637707	-0.304636	-0.04485	0.644138	1.93085
0.53	0.00954409	0.01444	-0.00939199	0.644021	0.942201	-0.227683	-0.156281	-0.0729185	-0.165244	0.603427	0.093082	0.111263	0.000971657	0.427337	-0.050799	-0.162549	0.324139	0.043087	0.0556141	-0.00372564	-0.0894406	-0.250539	0.186487	0.162057	-0.333667	0.100651	1.09238	1.93039	-0.0583355	-0.304429	-0.0539576	0.635724	1.92652
0.54	0.0131946	0.031809	-0.0100349	0.657207	0.941111	-0.229259	-0.128678	-0.105684	-0.173152	0.680735	0.0480545	0.0915976	0.00091156	0.420507	-0.0301039	-0.15734	0.345879	0.0347706	0.0271425	-0.00377326	-0.0940783	-0.274447	0.176538	0.155691	-0.333224	0.0994851	1.09252	1.92211	-0.0520118	-0.304175	-0.0624838	0.627844	1.92115
0.55	0.015416	0.0482379	-0.010129	0.670102	0.939846	-0.230833	-0.0964914	-0.137333	-0.178396	0.760352	0.00374065	0.0664718	0.000851432	0.417507	-0.0108318	-0.152687	0.371396	0.0330736	0.000662738	-0.00382092	-0.0981445	-0.297072	0.165492	0.149677	-0.33343	0.0989503	1.09333	1.9132	-0.0446153	-0.303984	-0.0698969	0.62045	1.91472
0.56	0.0162052	0.0633178	-0.0097147	0.682689	0.93842	-0.232358	-0.0602844	-0.166809	-0.180413	0.840644	-0.0371954	0.0362445	0.000791274	0.418236	0.00627155	-0.149066	0.400691	0.0383278	-0.0224355	-0.0038686	-0.101651	-0.317989	0.153548	0.144038	-0.334154	0.098868	1.09463	1.90385	-0.0359565	-0.303979	-0.075682	0.613412	1.90734
0.57	0.0157232	0.0767917	-0.00889429	0.694965	0.936877	-0.23379	-0.0208044	-0.193265	-0.178917	0.919969	-0.0722863	0.00198368	0.000731086	0.422062	0.020741	-0.146865	0.43307	0.0501424	-0.0410416	-0.00391632	-0.10473	-0.336943	0.14096	0.13877	-0.335184	0.0990323	1.09615	1.89433	-0.025872	-0.30426	-0.0794167	0.606541	1.89928
0.58	0.0142706	0.0885494	-0.00784147	0.706943	0.935288	-0.235094	0.0210894	-0.216106	-0.173879	0.996767	-0.0995916	-0.0345761	0.000670871	0.427934	0.0323991	-0.146322	0.467278	0.0675256	-0.0545152	-0.00396408	-0.107604	-0.353832	0.128019	0.133855	-0.336263	0.0992354	1.09753	1.88507	-0.0142554	-0.304882	-0.0808382	0.599629	1.89093
0.59	0.0122486	0.0986024	-0.00679548	0.718645	0.933733	-0.236241	0.064489	-0.234991	-0.165477	1.06962	-0.117943	-0.0711811	0.000610629	0.434547	0.0413263	-0.147478	0.501722	0.0890809	-0.0627895	-0.00401186	-0.110544	-0.368671	0.115041	0.129269	-0.337121	0.0992881	1.09837	1.87655	-0.00108132	-0.30583	-0.0798894	0.592485	1.88275
0.6	0.0101136	0.107048	-0.00603821	0.730102	0.932306	-0.237213	0.108482	-0.249805	-0.15404	1.1373	-0.12706	-0.1053	0.000550361	0.440513	0.047805	-0.150174	0.534725	0.113233	-0.0663578	-0.00405968	-0.113834	-0.381546	0.102345	0.124996	-0.337508	0.0990329	1.09825	1.86932	0.0135817	-0.307015	-0.076736	0.584977	1.87524
0.61	0.00832926	0.114023	-0.00585617	0.741348	0.931098	-0.238	0.152182	-0.260595	-0.140002	1.19875	-0.127512	-0.134431	0.000490065	0.444527	0.0522397	-0.154069	0.564747	0.138439	-0.0661505	-0.00410754	-0.117734	-0.392574	0.0902185	0.121027	-0.337222	0.0983513	1.0968	1.86389	0.0295715	-0.308282	-0.0717524	0.577058	1.8689
0.62	0.00731853	0.119665	-0.00649552	0.75241	0.930178	-0.2386	0.194751	-0.267512	-0.123875	1.25311	-0.120561	-0.156425	0.000429741	0.445496	0.0550789	-0.158698	0.590555	0.163357	-0.0633453	-0.00415543	-0.122454	-0.401857	0.0788954	0.117357	-0.336115	0.0971655	1.09372	1.86068	0.0466431	-0.309432	-0.0654805	0.56878	1.8642
0.63	0.00741948	0.124084	-0.00812132	0.763331	0.929633	-0.23902	0.235424	-0.27077	-0.106229	1.29969	-0.107911	-0.169776	0.000369391	0.442618	0.0567549	-0.163533	0.611292	0.186934	-0.0591595	-0.00420336	-0.128126	-0.409475	0.0685309	0.11397	-0.334103	0.0954377	1.08881	1.85996	0.0644866	-0.310255	-0.0585712	0.560297	1.86151
0.64	0.00884951	0.127358	-0.0107897	0.774151	0.929526	-0.23927	0.273544	-0.270631	-0.0876794	1.338	-0.091431	-0.173815	0.000309018	0.43542	0.0576466	-0.168056	0.626486	0.208436	-0.0546718	-0.00425133	-0.134786	-0.415488	0.0591886	0.110834	-0.331155	0.0931689	1.08197	1.86178	0.0827483	-0.31056	-0.0517159	0.551848	1.86112
0.65	0.0116815	0.129544	-0.0144411	0.78491	0.929893	-0.239368	0.308587	-0.267408	-0.0688695	1.36774	-0.0729131	-0.16879	0.000248626	0.423746	0.0580638	-0.171824	0.635985	0.227424	-0.0506996	-0.00429932	-0.142363	-0.419948	0.0508408	0.107893	-0.327287	0.0903986	1.07324	1.86591	0.101052	-0.310206	-0.0455789	0.543746	1.86315
0.66	0.0158334	0.130692	-0.0189153	0.79564	0.930745	-0.239333	0.340197	-0.261473	-0.0504451	1.38878	-0.053886	-0.155813	0.000188223	0.407719	0.0582443	-0.174518	0.639884	0.243701	-0.0477378	-0.00434735	-0.150679	-0.422919	0.0433814	0.105062	-0.322554	0.0872022	1.06279	1.87189	0.119016	-0.309119	-0.0407345	0.536348	1.86756
0.67	0.0210931	0.130864	-0.0239803	0.806368	0.932069	-0.239187	0.368194	-0.253261	-0.033024	1.4012	-0.0355193	-0.136692	0.000127816	0.387682	0.058352	-0.175972	0.638436	0.257253	-0.0459562	-0.00439539	-0.159461	-0.424476	0.0366494	0.102236	-0.317046	0.0836873	1.05086	1.87905	0.136274	-0.307294	-0.0376147	0.530032	1.87413
0.68	0.0271639	0.130138	-0.029367	0.817121	0.933827	-0.238953	0.39257	-0.24325	-0.0171672	1.40521	-0.0186073	-0.113683	6.74113e-05	0.364129	0.0584753	-0.17618	0.631983	0.268198	-0.0452433	-0.00444346	-0.168367	-0.424701	0.0304579	0.0992957	-0.310891	0.0799847	1.03777	1.8866	0.152488	-0.304791	-0.0364694	0.525161	1.88244
